<svg width="161" height="31" viewBox="0 0 161 31" fill="none" xmlns="http://www.w3.org/2000/svg">
<g clip-path="url(#clip0_1_102)">
<path d="M5.05562 3.56121C7.2098 1.59934 10.1349 0.45421 13.0995 0.311778C14.1142 0.311778 15.1318 0.317553 16.1465 0.308838C16.0947 1.3465 16.1465 2.387 16.116 3.42461C15.9728 5.74401 15.0739 8.01106 13.5596 9.8305C11.5913 12.2778 8.58094 13.9199 5.38469 14.3443C3.98918 14.5594 2.57231 14.4228 1.16773 14.4606C1.19209 13.3183 1.11591 12.1732 1.21036 11.0338C1.48462 8.20872 2.88317 5.50277 5.05562 3.56121Z" fill="#81818B"/>
<path d="M17.086 0.308838C18.1738 0.320493 19.2616 0.303063 20.3524 0.314666C23.0672 0.497733 25.7455 1.49177 27.7898 3.2154C30.0445 5.06098 31.5896 7.7001 31.9854 10.5194C32.1592 11.8273 32.0495 13.1497 32.1167 14.4635C31.1659 14.4606 30.2183 14.4577 29.2675 14.4635C26.9307 14.4025 24.6333 13.6816 22.6772 12.4667C21.7753 11.8505 20.849 11.2257 20.1726 10.3711C18.6887 8.79 17.6802 6.80487 17.2993 4.71222C17.0129 3.25892 17.1287 1.77663 17.086 0.308838Z" fill="#81818B"/>
<path d="M1.16977 15.2947C2.13566 15.347 3.1046 15.2511 4.0674 15.3528C8.18991 15.4371 12.1906 17.646 14.3264 21.0088C15.5514 22.8922 16.2094 25.1246 16.1242 27.3419C16.1211 28.0691 16.1333 28.7925 16.112 29.5165C14.5824 29.4724 13.0376 29.5916 11.5232 29.3097C8.15946 28.7694 5.06684 26.8595 3.20509 24.1333C1.79436 22.1511 1.09055 19.73 1.16368 17.3379C1.16368 16.6548 1.16368 15.9748 1.16977 15.2947Z" fill="#81818B"/>
<path d="M26.9684 15.6026C28.626 15.2509 30.3348 15.309 32.0201 15.309L32.0936 15.3788C32.0568 16.8989 32.1818 18.4364 31.8621 19.9391C31.1885 23.3106 28.8486 26.3216 25.7009 27.9753C23.7417 29.0162 21.4931 29.5275 19.2536 29.5044C18.5376 29.5076 17.8185 29.4929 17.1025 29.5128C17.1025 28.2544 17.0476 26.9905 17.1969 25.7373C17.5443 22.706 19.2627 19.8839 21.7338 17.9772C23.2633 16.8263 25.061 15.9921 26.9684 15.6026Z" fill="#81818B"/>
<path d="M44.6017 23.8868C44.6017 24.3985 44.4159 24.8313 44.0452 25.1857C43.694 25.5203 43.2504 25.6877 42.7143 25.6877C42.1983 25.6877 41.7651 25.5203 41.4144 25.1857C41.0637 24.8313 40.8884 24.3985 40.8884 23.8868V5.64316C40.8884 5.13144 41.0637 4.70834 41.4144 4.37381C41.7856 4.01954 42.2397 3.84241 42.7763 3.84241C43.3123 3.84241 43.7454 4.01954 44.0757 4.37381C44.4264 4.70834 44.6017 5.13144 44.6017 5.64316V23.8868Z" fill="#81818B"/>
<path d="M59.5075 9.89404C60.0435 9.89404 60.4872 10.0711 60.8384 10.4254C61.1886 10.7599 61.3639 11.1831 61.3639 11.6947V19.1929C61.3639 21.279 60.7554 22.9322 59.5385 24.1524C58.321 25.3726 56.5675 25.9824 54.2769 25.9824C51.9874 25.9824 50.2334 25.3726 49.0164 24.1524C47.82 22.9322 47.2215 21.279 47.2215 19.1929V11.6947C47.2215 11.1831 47.3968 10.7599 47.7475 10.4254C48.0982 10.0711 48.5418 9.89404 49.0784 9.89404C49.6149 9.89404 50.058 10.0711 50.4087 10.4254C50.76 10.7599 50.9353 11.1831 50.9353 11.6947V19.1929C50.9353 20.3934 51.2141 21.2889 51.7706 21.8793C52.3276 22.45 53.1634 22.7353 54.2769 22.7353C55.4125 22.7353 56.2578 22.45 56.8153 21.8793C57.3718 21.2889 57.6506 20.3934 57.6506 19.1929V11.6947C57.6506 11.1831 57.8259 10.7599 58.1766 10.4254C58.5273 10.0711 58.971 9.89404 59.5075 9.89404Z" fill="#81818B"/>
<path d="M72.5333 9.59888C74.1839 9.59888 75.4008 9.9826 76.1852 10.7502C76.969 11.498 77.4851 12.4721 77.7324 13.6727L77.2063 13.407L77.4541 12.9347C77.7014 12.482 78.0831 11.9999 78.5991 11.4881C79.1147 10.9568 79.7337 10.514 80.4555 10.1597C81.1984 9.78578 82.0237 9.59888 82.9314 9.59888C84.4172 9.59888 85.5412 9.9039 86.3046 10.514C87.0889 11.1241 87.6249 11.9408 87.9137 12.9642C88.203 13.9679 88.3473 15.0896 88.3473 16.3295V23.8867C88.3473 24.3984 88.172 24.8312 87.8208 25.1856C87.4701 25.5203 87.027 25.6876 86.4904 25.6876C85.9544 25.6876 85.5102 25.5203 85.1595 25.1856C84.8088 24.8312 84.6335 24.3984 84.6335 23.8867V16.3295C84.6335 15.68 84.5511 15.0995 84.3862 14.5877C84.2208 14.0564 83.9216 13.6333 83.4885 13.3184C83.0553 13.0035 82.4364 12.8461 81.6321 12.8461C80.8477 12.8461 80.1773 13.0035 79.6203 13.3184C79.0627 13.6333 78.6401 14.0564 78.3513 14.5877C78.0831 15.0995 77.9487 15.68 77.9487 16.3295V23.8867C77.9487 24.3984 77.7733 24.8312 77.4231 25.1856C77.0724 25.5203 76.6283 25.6876 76.0923 25.6876C75.5557 25.6876 75.1121 25.5203 74.7619 25.1856C74.4107 24.8312 74.2353 24.3984 74.2353 23.8867V16.3295C74.2353 15.68 74.1529 15.0995 73.9875 14.5877C73.8227 14.0564 73.5234 13.6333 73.0903 13.3184C72.6572 13.0035 72.0377 12.8461 71.2334 12.8461C70.4496 12.8461 69.7791 13.0035 69.2216 13.3184C68.6651 13.6333 68.2419 14.0564 67.9532 14.5877C67.6849 15.0995 67.551 15.68 67.551 16.3295V23.8867C67.551 24.3984 67.3757 24.8312 67.025 25.1856C66.6738 25.5203 66.2307 25.6876 65.6941 25.6876C65.1576 25.6876 64.7145 25.5203 64.3632 25.1856C64.0125 24.8312 63.8372 24.3984 63.8372 23.8867V11.6948C63.8372 11.1831 64.0125 10.76 64.3632 10.4254C64.7145 10.0712 65.1576 9.89409 65.6941 9.89409C66.2307 9.89409 66.6738 10.0712 67.025 10.4254C67.3757 10.76 67.551 11.1831 67.551 11.6948V12.9642L67.0864 12.8756C67.2723 12.541 67.5306 12.1868 67.8603 11.8129C68.1905 11.4193 68.5926 11.0552 69.0672 10.7206C69.5418 10.3861 70.0679 10.1204 70.6454 9.92354C71.2234 9.70708 71.8529 9.59888 72.5333 9.59888Z" fill="#81818B"/>
<path d="M94.316 23.8867C94.316 24.3984 94.1407 24.8312 93.7895 25.1856C93.4393 25.5203 92.9957 25.6876 92.4591 25.6876C91.9231 25.6876 91.479 25.5203 91.1283 25.1856C90.7781 24.8312 90.6027 24.3984 90.6027 23.8867V11.6948C90.6027 11.1831 90.7781 10.76 91.1283 10.4254C91.479 10.0712 91.9231 9.89409 92.4591 9.89409C92.9957 9.89409 93.4393 10.0712 93.7895 10.4254C94.1407 10.76 94.316 11.1831 94.316 11.6948V23.8867ZM92.4281 7.97521C91.7267 7.97521 91.2317 7.86701 90.9424 7.6505C90.6542 7.43404 90.5098 7.05027 90.5098 6.49923V5.93832C90.5098 5.36764 90.6647 4.98381 90.9734 4.78704C91.3036 4.57053 91.7992 4.46228 92.4591 4.46228C93.1815 4.46228 93.6871 4.57053 93.9753 4.78704C94.2646 5.0035 94.409 5.38728 94.409 5.93832V6.49923C94.409 7.06995 94.2541 7.46355 93.9444 7.68C93.6357 7.87683 93.1295 7.97521 92.4281 7.97521Z" fill="#81818B"/>
<path d="M105.436 9.59888C106.963 9.59888 108.118 9.9039 108.902 10.514C109.707 11.1241 110.253 11.9408 110.542 12.9642C110.852 13.9679 111.006 15.0896 111.006 16.3295V23.8867C111.006 24.3984 110.831 24.8312 110.48 25.1856C110.13 25.5203 109.686 25.6876 109.149 25.6876C108.613 25.6876 108.17 25.5203 107.819 25.1856C107.468 24.8312 107.292 24.3984 107.292 23.8867V16.3295C107.292 15.68 107.2 15.0995 107.015 14.5877C106.849 14.0564 106.54 13.6333 106.086 13.3184C105.632 13.0035 104.982 12.8461 104.136 12.8461C103.311 12.8461 102.609 13.0035 102.032 13.3184C101.475 13.6333 101.042 14.0564 100.732 14.5877C100.443 15.0995 100.298 15.68 100.298 16.3295V23.8867C100.298 24.3984 100.124 24.8312 99.7729 25.1856C99.4222 25.5203 98.9781 25.6876 98.442 25.6876C97.9055 25.6876 97.4619 25.5203 97.1117 25.1856C96.7605 24.8312 96.5851 24.3984 96.5851 23.8867V11.6948C96.5851 11.1831 96.7605 10.76 97.1117 10.4254C97.4619 10.0712 97.9055 9.89409 98.442 9.89409C98.9781 9.89409 99.4222 10.0712 99.7729 10.4254C100.124 10.76 100.298 11.1831 100.298 11.6948V12.9642L99.8349 12.8756C100.021 12.541 100.288 12.1868 100.639 11.8129C100.99 11.4193 101.403 11.0552 101.877 10.7206C102.352 10.3861 102.888 10.1204 103.486 9.92354C104.085 9.70708 104.735 9.59888 105.436 9.59888Z" fill="#81818B"/>
<path d="M129.38 17.8055C129.38 19.4193 128.998 20.8461 128.235 22.0859C127.492 23.3062 126.481 24.2606 125.202 24.9494C123.943 25.6384 122.53 25.9824 120.962 25.9824C119.394 25.9824 117.97 25.6384 116.692 24.9494C115.433 24.2606 114.423 23.3062 113.659 22.0859C112.916 20.8461 112.545 19.4193 112.545 17.8055C112.545 16.1917 112.916 14.7747 113.659 13.5545C114.423 12.3147 115.433 11.3504 116.692 10.6616C117.97 9.95309 119.394 9.59888 120.962 9.59888C122.53 9.59888 123.943 9.95309 125.202 10.6616C126.481 11.3504 127.492 12.3147 128.235 13.5545C128.998 14.7747 129.38 16.1917 129.38 17.8055ZM125.666 17.8055C125.666 16.8018 125.45 15.9359 125.016 15.2077C124.603 14.4599 124.036 13.8793 123.314 13.466C122.613 13.0527 121.829 12.8461 120.962 12.8461C120.096 12.8461 119.301 13.0527 118.579 13.466C117.878 13.8793 117.31 14.4599 116.877 15.2077C116.465 15.9359 116.258 16.8018 116.258 17.8055C116.258 18.7895 116.465 19.6554 116.877 20.4033C117.31 21.1314 117.878 21.7022 118.579 22.1155C119.301 22.5288 120.096 22.7354 120.962 22.7354C121.829 22.7354 122.613 22.5288 123.314 22.1155C124.036 21.7022 124.603 21.1314 125.016 20.4033C125.45 19.6554 125.666 18.7895 125.666 17.8055Z" fill="#81818B"/>
<path d="M143.221 9.89404C143.757 9.89404 144.201 10.0711 144.552 10.4254C144.902 10.7599 145.078 11.1831 145.078 11.6947V19.1929C145.078 21.279 144.469 22.9322 143.252 24.1524C142.034 25.3726 140.281 25.9824 137.991 25.9824C135.701 25.9824 133.947 25.3726 132.73 24.1524C131.533 22.9322 130.935 21.279 130.935 19.1929V11.6947C130.935 11.1831 131.11 10.7599 131.461 10.4254C131.812 10.0711 132.255 9.89404 132.792 9.89404C133.328 9.89404 133.772 10.0711 134.123 10.4254C134.473 10.7599 134.649 11.1831 134.649 11.6947V19.1929C134.649 20.3934 134.927 21.2889 135.484 21.8793C136.041 22.45 136.877 22.7353 137.991 22.7353C139.125 22.7353 139.972 22.45 140.528 21.8793C141.086 21.2889 141.364 20.3934 141.364 19.1929V11.6947C141.364 11.1831 141.54 10.7599 141.89 10.4254C142.241 10.0711 142.685 9.89404 143.221 9.89404Z" fill="#81818B"/>
<path d="M146.591 23.2373C146.385 22.9618 146.292 22.6075 146.313 22.1745C146.334 21.7415 146.602 21.3676 147.118 21.0528C147.448 20.8559 147.798 20.7772 148.17 20.8166C148.541 20.8363 148.902 21.0134 149.253 21.348C149.852 21.9186 150.481 22.3615 151.141 22.6764C151.801 22.9912 152.626 23.1487 153.616 23.1487C153.926 23.129 154.266 23.0896 154.638 23.0306C155.009 22.9519 155.329 22.7944 155.597 22.5583C155.885 22.3025 156.03 21.9186 156.03 21.407C156.03 20.9741 155.875 20.6296 155.566 20.3738C155.256 20.1179 154.844 19.9015 154.328 19.7243C153.833 19.5472 153.276 19.3799 152.657 19.2225C152.017 19.0454 151.357 18.8486 150.676 18.6321C150.016 18.4156 149.407 18.1401 148.85 17.8055C148.294 17.4512 147.84 16.9888 147.489 16.418C147.138 15.8473 146.963 15.129 146.963 14.2631C146.963 13.279 147.251 12.4426 147.829 11.7538C148.407 11.065 149.15 10.5337 150.057 10.1597C150.986 9.78578 151.955 9.59888 152.966 9.59888C153.606 9.59888 154.276 9.67757 154.978 9.83502C155.679 9.97278 156.35 10.2089 156.99 10.5435C157.629 10.8584 158.166 11.2815 158.599 11.8129C158.825 12.1081 158.96 12.4623 159.001 12.8756C159.042 13.2889 158.846 13.6628 158.413 13.9974C158.104 14.2335 157.743 14.3418 157.33 14.3221C156.918 14.2828 156.577 14.145 156.309 13.9089C155.958 13.4758 155.484 13.1314 154.885 12.8756C154.307 12.6198 153.637 12.4918 152.874 12.4918C152.564 12.4918 152.224 12.5312 151.852 12.6099C151.502 12.669 151.192 12.8166 150.924 13.0527C150.656 13.2692 150.522 13.6235 150.522 14.1155C150.522 14.5681 150.676 14.9322 150.986 15.2077C151.295 15.4635 151.708 15.68 152.224 15.8572C152.76 16.0146 153.328 16.1721 153.926 16.3295C154.545 16.4869 155.174 16.6739 155.814 16.8903C156.453 17.1069 157.041 17.3922 157.578 17.7465C158.114 18.1007 158.547 18.5632 158.877 19.1339C159.208 19.685 159.372 20.3935 159.372 21.2594C159.372 22.2631 159.063 23.1192 158.444 23.8276C157.825 24.5362 157.051 25.0773 156.123 25.4514C155.195 25.8057 154.245 25.9824 153.276 25.9824C152.059 25.9824 150.842 25.786 149.624 25.3923C148.407 24.9789 147.396 24.2606 146.591 23.2373Z" fill="#81818B"/>
</g>
<defs>
<clipPath id="clip0_1_102">
<rect width="160" height="30" fill="white" transform="translate(0.179993 0.265625)"/>
</clipPath>
</defs>
</svg>
