<svg width="165" height="36" viewBox="0 0 165 36" fill="none" xmlns="http://www.w3.org/2000/svg">
<g clip-path="url(#clip0_1_116)">
<path d="M0.353882 23.66L12.0134 18.6067L18.7245 22.3965L20.0802 34.8297L11.8101 34.7635L13.0303 26.1195L11.6067 25.3218L4.62449 30.6409L0.353882 23.66Z" fill="#81818B"/>
<path d="M19.4706 21.8642L29.7745 29.244L33.8416 22.1301L25.5713 18.8722V17.2765L33.8416 13.9522L29.7745 6.90454L19.4706 14.2846V21.8642Z" fill="#81818B"/>
<path d="M18.7245 13.6865L20.0802 1.25342L11.8101 1.3864L13.0303 10.0297L11.6067 10.8275L4.55672 5.5086L0.353882 12.4233L12.0134 17.4763L18.7245 13.6865Z" fill="#81818B"/>
<path d="M61.4324 16.5514V28.1996H65.8834V13.3551H59.4017V16.5514H61.4324Z" fill="#81818B"/>
<path d="M61.2933 11.2695C61.7013 11.6847 62.3229 11.8923 63.1571 11.8923C63.9924 11.8923 64.604 11.6847 64.993 11.2695C65.4015 10.8359 65.6052 10.2941 65.6052 9.64411C65.6052 8.97584 65.4015 8.43409 64.993 8.01881C64.604 7.58542 63.9924 7.36865 63.1571 7.36865C62.3229 7.36865 61.7013 7.58542 61.2933 8.01881C60.9043 8.43409 60.7095 8.97584 60.7095 9.64411C60.7095 10.2941 60.9043 10.8359 61.2933 11.2695Z" fill="#81818B"/>
<path d="M45.9376 27.8743C47.1986 28.4341 48.7469 28.7142 50.5828 28.7142C52.3079 28.7142 53.7911 28.452 55.0343 27.9285C56.2769 27.405 57.2319 26.6734 57.8992 25.7342C58.5859 24.7771 58.9287 23.6666 58.9287 22.4024C58.9287 21.1745 58.6048 20.1361 57.9554 19.2873C57.3243 18.4205 56.4439 17.7433 55.3125 17.2558C54.1811 16.75 52.8734 16.434 51.3897 16.3078L49.832 16.1723C48.9049 16.0999 48.2371 15.8563 47.8292 15.4408C47.4207 15.0255 47.217 14.5378 47.217 13.9782C47.217 13.5446 47.3288 13.1474 47.5504 12.7862C47.7735 12.407 48.1069 12.109 48.5521 11.8923C49.0162 11.6757 49.5816 11.5673 50.2494 11.5673C50.954 11.5673 51.5383 11.6936 52.0019 11.9466C52.1037 12 52.2008 12.0571 52.2917 12.1178L52.3137 12.1328C52.3478 12.1557 52.3814 12.1795 52.414 12.2035C52.6959 12.4131 52.9201 12.6615 53.087 12.9488C53.3275 13.3461 53.4488 13.7884 53.4488 14.2761H57.8992C57.8992 12.9758 57.5931 11.8471 56.9815 10.8901C56.3699 9.91491 55.4889 9.16552 54.3392 8.64163C53.2073 8.09988 51.8444 7.82898 50.2494 7.82898C48.7285 7.82898 47.4118 8.08198 46.2988 8.58755C45.1863 9.07522 44.3148 9.77946 43.6843 10.7003C43.0716 11.6214 42.7655 12.714 42.7655 13.9782C42.7655 15.7298 43.3688 17.1383 44.5742 18.2039C45.7796 19.2694 47.3934 19.8833 49.4147 20.0458L50.945 20.1813C52.1872 20.2897 53.087 20.5335 53.6435 20.9126C54.1995 21.2738 54.4778 21.7704 54.4778 22.4024C54.4778 22.6929 54.4289 22.9654 54.3313 23.2199C54.2588 23.4089 54.1591 23.5879 54.0331 23.757C53.7354 24.136 53.3002 24.4339 52.7253 24.651C52.1504 24.8675 51.4364 24.9758 50.5828 24.9758C49.6373 24.9758 48.8676 24.8496 48.2744 24.5964C47.6806 24.3257 47.2359 23.9735 46.9382 23.5404C46.6605 23.1067 46.5219 22.6373 46.5219 22.1316H42.0983C42.0983 23.4138 42.4227 24.5516 43.0716 25.5445C43.721 26.5199 44.676 27.2967 45.9376 27.8743Z" fill="#81818B"/>
<path d="M75.8148 28.3889C74.275 28.3889 73.0328 28.2087 72.0868 27.8471C71.1407 27.4681 70.4456 26.8448 70.0004 25.9781C69.5741 25.0931 69.3605 23.9016 69.3605 22.4025V16.5244H67.0515V13.3551H69.3605V9.34619H73.5053V13.3551H77.9568V16.5244H73.5053V22.5652C73.5053 23.2695 73.6912 23.8111 74.0618 24.1901C74.4514 24.5517 74.9984 24.732 75.7035 24.732H77.9568V28.3889H75.8148Z" fill="#81818B"/>
<path fill-rule="evenodd" clip-rule="evenodd" d="M83.316 28.0641C84.3172 28.4972 85.4675 28.7142 86.7653 28.7142C88.0447 28.7142 89.1766 28.4972 90.1594 28.0641C91.1422 27.6305 91.9586 27.0256 92.6075 26.2493C93.2564 25.4725 93.6927 24.5874 93.9147 23.5945H89.8255C89.6402 24.046 89.2879 24.425 88.7687 24.732C88.2495 25.0389 87.5811 25.1928 86.7653 25.1928C86.2597 25.1928 85.8082 25.1342 85.4103 25.0179C85.1073 24.9293 84.8359 24.8071 84.5955 24.651C84.039 24.2899 83.631 23.7839 83.3712 23.134C83.2992 22.9488 83.2378 22.7551 83.1858 22.5534C83.1328 22.349 83.0903 22.1364 83.0583 21.915H94.193V20.4522C94.193 19.0978 93.8964 17.8517 93.3031 16.7141C92.7093 15.5582 91.8468 14.6282 90.7159 13.9239C89.6029 13.2015 88.2306 12.8403 86.5983 12.8403C85.3557 12.8403 84.2427 13.0572 83.2599 13.4905C82.296 13.9058 81.489 14.4746 80.8401 15.197C80.1912 15.9194 79.6904 16.7412 79.3371 17.6622C79.0037 18.5649 78.8367 19.513 78.8367 20.5063V21.048C78.8367 22.0053 79.0037 22.9443 79.3371 23.8653C79.6904 24.7682 80.1912 25.5897 80.8401 26.3302C81.5074 27.0529 82.3322 27.6305 83.316 28.0641ZM83.1349 19.2365C83.147 19.1791 83.1601 19.1226 83.1743 19.067C83.2131 18.9139 83.2572 18.7671 83.3082 18.6269C83.3365 18.547 83.367 18.4692 83.3995 18.3935C83.6772 17.7252 84.0857 17.2197 84.6233 16.8766C84.8244 16.7483 85.0422 16.6441 85.2759 16.5638C85.6696 16.4292 86.1106 16.3619 86.5983 16.3619C87.3591 16.3619 87.9891 16.5335 88.4899 16.8766C89.0091 17.2016 89.3987 17.6801 89.6586 18.3121C89.6796 18.3632 89.6995 18.4151 89.7189 18.4676C89.7494 18.5514 89.7783 18.6373 89.8045 18.7254C89.8439 18.8565 89.878 18.9922 89.9085 19.1325C89.9305 19.2358 89.9494 19.3416 89.9662 19.45H83.0919C83.105 19.3776 83.1192 19.3065 83.1349 19.2365Z" fill="#81818B"/>
<path d="M96.0299 28.1996V13.3551H99.5632V17.0938C99.6109 16.8715 99.6655 16.6582 99.7264 16.4537C99.7789 16.2813 99.8351 16.1152 99.8965 15.9555C100.286 14.9441 100.87 14.1858 101.649 13.6801C102.428 13.1564 103.383 12.8947 104.515 12.8947H104.709C105.859 12.8947 106.814 13.1564 107.575 13.6801C108.354 14.1858 108.938 14.9441 109.327 15.9555L109.358 16.0318L109.384 16.1017C109.402 16.0524 109.42 16.0037 109.438 15.9555C109.846 14.9441 110.44 14.1858 111.219 13.6801C111.998 13.1564 112.953 12.8947 114.085 12.8947H114.279C115.429 12.8947 116.393 13.1564 117.172 13.6801C117.97 14.1858 118.573 14.9441 118.98 15.9555C119.388 16.9669 119.593 18.231 119.593 19.7479V28.1996H115.141V19.504C115.141 18.6914 114.919 18.0323 114.474 17.5267C114.047 17.0209 113.435 16.7682 112.638 16.7682C111.84 16.7682 111.21 17.0301 110.746 17.5538C110.283 18.0593 110.051 18.7365 110.051 19.5854V28.1996H105.572V19.504C105.572 18.6914 105.349 18.0323 104.904 17.5267C104.478 17.0209 103.874 16.7682 103.096 16.7682C102.28 16.7682 101.64 17.0301 101.176 17.5538C100.713 18.0593 100.481 18.7365 100.481 19.5854V28.1996H96.0299Z" fill="#81818B"/>
<path fill-rule="evenodd" clip-rule="evenodd" d="M131.483 25.3392V28.1997H135.015V19.0979C135.015 17.7253 134.737 16.6058 134.181 15.7388C133.624 14.854 132.809 14.1949 131.733 13.7615C130.676 13.3281 129.368 13.1113 127.81 13.1113C127.473 13.1113 127.12 13.1148 126.753 13.122C126.536 13.1264 126.313 13.1318 126.086 13.1384C125.473 13.1565 124.88 13.1836 124.305 13.2197L123.866 13.2485C123.64 13.2638 123.429 13.2789 123.229 13.2941C123.079 13.3054 122.937 13.3168 122.803 13.3281V16.9851C123.378 16.9489 124.018 16.9127 124.723 16.8767C124.92 16.8667 125.115 16.8573 125.309 16.8485C125.589 16.8359 125.865 16.825 126.139 16.8154C126.355 16.8077 126.569 16.801 126.781 16.7953C127.449 16.7772 127.987 16.7683 128.395 16.7683C129.21 16.7683 129.804 16.9578 130.175 17.3371C130.546 17.7164 130.731 18.2852 130.731 19.0438V19.0979H127.977C126.624 19.0979 125.427 19.2695 124.388 19.6126C123.35 19.9376 122.543 20.4522 121.969 21.1565C121.393 21.8429 121.106 22.7278 121.106 23.8112C121.106 24.8045 121.338 25.6623 121.801 26.3849C122.265 27.0887 122.905 27.6306 123.721 28.0096C124.556 28.389 125.52 28.5787 126.614 28.5787C127.671 28.5787 128.562 28.389 129.285 28.0096C130.027 27.6306 130.602 27.0887 131.01 26.3849C131.082 26.2659 131.148 26.1428 131.211 26.0149C131.299 25.8341 131.378 25.6439 131.447 25.4444L131.483 25.3392ZM130.731 22.7007V21.5088H127.949C127.17 21.5088 126.568 21.6983 126.141 22.0776C125.733 22.4388 125.529 22.9354 125.529 23.5674C125.529 23.8649 125.58 24.1352 125.681 24.379C125.784 24.6233 125.937 24.8404 126.141 25.03C126.568 25.3916 127.17 25.5719 127.949 25.5719C128.097 25.5719 128.241 25.5647 128.379 25.5509C128.492 25.5392 128.602 25.5227 128.709 25.5016C128.912 25.4614 129.105 25.4032 129.285 25.328C129.693 25.1477 130.027 24.8498 130.286 24.4341C130.546 24.0188 130.695 23.4408 130.731 22.7007Z" fill="#81818B"/>
<path d="M137.679 28.1997V13.3552H141.212V18.2548C141.382 16.8561 141.808 15.7283 142.492 14.8721C143.42 13.7345 144.754 13.1656 146.498 13.1656H147.082V16.9037H145.969C144.746 16.9037 143.8 17.2287 143.132 17.8788C142.464 18.5109 142.13 19.432 142.13 20.6418V28.1997H137.679Z" fill="#81818B"/>
<path d="M152.727 21.2649H154.201L159.014 28.1997H164.021L157.918 19.683L162.936 13.3552H158.263L152.727 20.4134V8.42517H148.276V28.1997H152.727V21.2649Z" fill="#81818B"/>
</g>
<defs>
<clipPath id="clip0_1_116">
<rect width="164" height="35" fill="white" transform="translate(0.179993 0.265625)"/>
</clipPath>
</defs>
</svg>
