<svg width="164" height="35" viewBox="0 0 164 35" fill="none" xmlns="http://www.w3.org/2000/svg">
<path d="M142.466 28.2449C141.138 28.2449 139.971 28.044 138.966 27.6428C137.959 27.222 137.155 26.6487 136.551 25.9222C135.948 25.1962 135.586 24.3552 135.465 23.3996H139.357C139.478 23.9535 139.801 24.4317 140.323 24.833C140.866 25.2152 141.56 25.4064 142.405 25.4064C143.25 25.4064 143.864 25.244 144.246 24.9188C144.648 24.5941 144.849 24.2212 144.849 23.8008C144.849 23.189 144.568 22.778 144.005 22.5678C143.441 22.3386 142.657 22.1188 141.651 21.9085C141.008 21.7747 140.354 21.6123 139.69 21.4211C139.026 21.23 138.412 20.991 137.849 20.7044C137.306 20.3985 136.863 20.0163 136.521 19.5575C136.179 19.0797 136.008 18.4967 136.008 17.8086C136.008 16.5471 136.531 15.4864 137.578 14.6262C138.643 13.7661 140.132 13.3361 142.043 13.3361C143.814 13.3361 145.222 13.7279 146.267 14.5115C147.334 15.2952 147.967 16.3751 148.169 17.7513H144.518C144.296 16.7001 143.461 16.1744 142.013 16.1744C141.289 16.1744 140.726 16.3082 140.323 16.5758C139.941 16.8434 139.75 17.1779 139.75 17.5793C139.75 17.9998 140.042 18.3343 140.625 18.5828C141.209 18.8312 141.983 19.0606 142.948 19.2709C143.994 19.5002 144.95 19.7582 145.815 20.0449C146.7 20.3125 147.404 20.7235 147.928 21.2778C148.45 21.8129 148.712 22.5869 148.712 23.6C148.732 24.4795 148.49 25.2723 147.988 25.9797C147.485 26.6867 146.761 27.2411 145.815 27.6428C144.87 28.044 143.753 28.2449 142.466 28.2449Z" fill="#81818B"/>
<path d="M46.229 27.9007L41.8536 13.6801H45.6861L48.2812 23.9154L51.2984 13.6801H55.5834L58.6011 23.9154L61.2261 13.6801H65.0586L60.6528 27.9007H56.6397L53.4409 17.2639L50.2426 27.9007H46.229Z" fill="#81818B"/>
<path fill-rule="evenodd" clip-rule="evenodd" d="M6.14864 9.23609C8.88898 5.73387 13.2772 3.46493 18.2231 3.46493C23.1981 3.46493 27.6086 5.76065 30.3457 9.29799C30.2291 9.41181 30.1231 9.52978 30.027 9.64759C29.5256 10.2645 29.1484 11.059 28.8462 11.8659C28.2377 13.4887 27.7735 15.6085 27.3437 17.5935L27.3055 17.7719C26.8766 19.7533 26.4781 21.5959 25.9961 22.9638C25.7796 23.5783 25.5743 24.0128 25.3922 24.291C25.2022 24.0105 24.9867 23.5708 24.7585 22.9475C24.243 21.5403 23.8095 19.6263 23.35 17.5827L23.3351 17.5157V17.5157C22.8934 15.5527 22.425 13.4699 21.8409 11.8756C21.5474 11.0747 21.1874 10.2881 20.7165 9.67694C20.2543 9.07718 19.485 8.40029 18.3598 8.40029C17.2417 8.40029 16.4689 9.06983 16 9.66287C15.52 10.2701 15.1458 11.0534 14.8375 11.8547C14.2166 13.4682 13.709 15.5789 13.2367 17.5666L13.1879 17.7719C12.7201 19.7409 12.2828 21.5818 11.7864 22.9523C11.597 23.4757 11.4182 23.8739 11.2563 24.1583C11.0981 23.8752 10.9238 23.4797 10.7394 22.9607C10.2633 21.6194 9.8461 19.8301 9.39807 17.9083L9.31964 17.5719C8.85543 15.583 8.3518 13.4685 7.72212 11.85C7.40927 11.0457 7.0266 10.2584 6.53142 9.64838C6.41928 9.5103 6.29186 9.37013 6.14864 9.23609ZM4.49012 11.9253C4.62063 12.1701 4.75871 12.4736 4.90146 12.8406C5.44651 14.2416 5.90825 16.1533 6.38374 18.1905L6.47629 18.5875C6.90921 20.4464 7.35955 22.38 7.89001 23.8739C8.17215 24.6684 8.51287 25.4466 8.95103 26.0514C9.36542 26.6235 10.1088 27.3623 11.2519 27.3623C12.3917 27.3623 13.1368 26.627 13.554 26.0576C13.996 25.4542 14.3422 24.6769 14.6301 23.8818C15.1818 22.3584 15.6516 20.3794 16.1013 18.4855V18.4854L16.17 18.1959C16.6544 16.1574 17.1208 14.2419 17.6619 12.8358C17.9125 12.1843 18.1472 11.7305 18.3515 11.449C18.5451 11.7281 18.7663 12.1747 19.0009 12.815C19.5164 14.2222 19.9495 16.1361 20.4092 18.1798L20.4243 18.2467C20.8658 20.2098 21.3342 22.2926 21.9183 23.8867C22.2118 24.6879 22.5718 25.4745 23.0427 26.0855C23.505 26.6854 24.2742 27.3623 25.3992 27.3623C26.5302 27.3623 27.2966 26.6792 27.7534 26.074C28.2172 25.4599 28.5659 24.6707 28.8477 23.8708C29.3891 22.3344 29.8196 20.3408 30.2302 18.4444V18.4443L30.289 18.169C30.731 16.1278 31.1552 14.2214 31.6792 12.8246C31.7926 12.5208 31.9044 12.2617 32.011 12.0441C32.8137 13.7921 33.2589 15.7223 33.2589 17.7513C33.2589 25.6413 26.5274 32.0377 18.2231 32.0377C9.91897 32.0377 3.18713 25.6413 3.18713 17.7513C3.18713 15.6762 3.65275 13.7044 4.49012 11.9253ZM18.2231 0.607666C8.25814 0.607666 0.179932 8.28312 0.179932 17.7513C0.179932 27.2194 8.25814 34.8948 18.2231 34.8948C28.1883 34.8948 36.2661 27.2194 36.2661 17.7513C36.2661 8.28312 28.1883 0.607666 18.2231 0.607666ZM18.5669 11.2098C18.5669 11.2101 18.5633 11.2128 18.5563 11.2167C18.5633 11.2114 18.5669 11.2095 18.5669 11.2098ZM18.1512 11.2117C18.1442 11.2077 18.1408 11.2049 18.1408 11.2045C18.1408 11.2042 18.1443 11.2062 18.1512 11.2117ZM25.1706 24.5623C25.1706 24.5623 25.1738 24.5592 25.1803 24.5552C25.1738 24.5605 25.1706 24.5627 25.1706 24.5623ZM25.6078 24.5508C25.6148 24.5548 25.6185 24.5574 25.6185 24.5579C25.6185 24.5583 25.6148 24.5561 25.6078 24.5508ZM10.9437 24.5879C10.9437 24.5875 10.948 24.5835 10.9567 24.5778C10.9481 24.5853 10.9437 24.5884 10.9437 24.5879ZM11.5527 24.5804C11.5613 24.5862 11.5656 24.5901 11.5656 24.5906C11.5656 24.591 11.5612 24.5884 11.5527 24.5804Z" fill="#81818B"/>
<path d="M70.6818 28.2449C69.3945 28.2449 68.3382 28.0533 67.5134 27.6711C66.6892 27.2698 66.0755 26.7442 65.6728 26.0943C65.2707 25.4444 65.0696 24.7277 65.0696 23.9442C65.0696 22.6254 65.6124 21.5549 66.6987 20.733C67.7849 19.9112 69.415 19.5002 71.5874 19.5002H75.3895V19.1562C75.3895 18.1813 75.0976 17.4646 74.5143 17.0059C73.931 16.5471 73.2065 16.3178 72.3419 16.3178C71.557 16.3178 70.8729 16.4993 70.2896 16.8625C69.7064 17.2066 69.3441 17.7226 69.2034 18.4107H65.4313C65.5321 17.3786 65.8944 16.4802 66.5175 15.7157C67.1617 14.9512 67.9865 14.3682 68.9919 13.9668C69.9983 13.5463 71.1244 13.3361 72.3718 13.3361C74.5043 13.3361 76.1838 13.8425 77.4113 14.8556C78.6382 15.8686 79.2519 17.3022 79.2519 19.1562V27.9007H75.9623L75.6005 25.6072C75.158 26.3717 74.5343 27.0022 73.73 27.4995C72.9451 27.9963 71.9292 28.2449 70.6818 28.2449ZM71.557 25.3776C72.6637 25.3776 73.5184 25.0334 74.1216 24.3455C74.7453 23.6575 75.138 22.8067 75.2992 21.7938H72.0095C70.9837 21.7938 70.2497 21.9754 69.8067 22.3386C69.3646 22.6824 69.143 23.1129 69.143 23.6287C69.143 24.1831 69.3646 24.6131 69.8067 24.9188C70.2497 25.2245 70.8325 25.3776 71.557 25.3776Z" fill="#81818B"/>
<path d="M85.3319 27.9007L79.8405 13.6801H83.8835L87.6855 24.4317L91.4876 13.6801H95.5311L90.0092 27.9007H85.3319Z" fill="#81818B"/>
<path d="M103.295 28.2449C101.787 28.2449 100.449 27.9388 99.2822 27.3273C98.1156 26.7155 97.2005 25.8554 96.5364 24.7467C95.8723 23.6385 95.541 22.3577 95.541 20.905C95.541 19.4333 95.8628 18.124 96.506 16.9772C97.1701 15.8304 98.0752 14.9416 99.2223 14.3108C100.388 13.661 101.756 13.3361 103.326 13.3361C104.794 13.3361 106.092 13.6419 107.219 14.2535C108.345 14.8651 109.22 15.7061 109.844 16.7765C110.487 17.8277 110.81 19.0032 110.81 20.303C110.81 20.5132 110.799 20.733 110.779 20.9624C110.779 21.1918 110.769 21.4307 110.749 21.6792H99.373C99.4533 22.7877 99.856 23.6575 100.58 24.2884C101.324 24.9188 102.22 25.2343 103.266 25.2343C104.05 25.2343 104.704 25.0719 105.227 24.7467C105.77 24.403 106.172 23.9632 106.434 23.4279H110.356C110.075 24.3264 109.602 25.1485 108.938 25.8939C108.294 26.6199 107.49 27.1933 106.524 27.614C105.579 28.0343 104.502 28.2449 103.295 28.2449ZM103.326 16.3178C102.381 16.3178 101.545 16.5758 100.821 17.0919C100.097 17.5888 99.6344 18.3534 99.4328 19.3855H106.886C106.826 18.4489 106.464 17.7035 105.8 17.1492C105.136 16.5949 104.312 16.3178 103.326 16.3178Z" fill="#81818B"/>
<path d="M157.112 28.2449C155.785 28.2449 154.618 28.044 153.612 27.6428C152.606 27.222 151.802 26.6487 151.198 25.9222C150.595 25.1962 150.232 24.3552 150.112 23.3996H154.004C154.125 23.9535 154.447 24.4317 154.97 24.833C155.513 25.2152 156.207 25.4064 157.052 25.4064C157.897 25.4064 158.51 25.244 158.893 24.9188C159.295 24.5941 159.496 24.2212 159.496 23.8008C159.496 23.189 159.214 22.778 158.651 22.5678C158.088 22.3386 157.304 22.1188 156.298 21.9085C155.654 21.7747 155 21.6123 154.336 21.4211C153.673 21.23 153.059 20.991 152.496 20.7044C151.953 20.3985 151.51 20.0163 151.168 19.5575C150.826 19.0797 150.655 18.4967 150.655 17.8086C150.655 16.5471 151.178 15.4864 152.224 14.6262C153.29 13.7661 154.779 13.3361 156.69 13.3361C158.46 13.3361 159.868 13.7279 160.914 14.5115C161.98 15.2952 162.614 16.3751 162.815 17.7513H159.164C158.943 16.7001 158.108 16.1744 156.66 16.1744C155.935 16.1744 155.372 16.3082 154.97 16.5758C154.588 16.8434 154.397 17.1779 154.397 17.5793C154.397 17.9998 154.688 18.3343 155.272 18.5828C155.855 18.8312 156.629 19.0606 157.595 19.2709C158.641 19.5002 159.597 19.7582 160.462 20.0449C161.347 20.3125 162.051 20.7235 162.574 21.2778C163.097 21.8129 163.359 22.5869 163.359 23.6C163.379 24.4795 163.137 25.2723 162.634 25.9797C162.131 26.6867 161.407 27.2411 160.462 27.6428C159.516 28.044 158.4 28.2449 157.112 28.2449Z" fill="#81818B"/>
<path d="M112.851 27.9007V7.25781H116.713V27.9007H112.851Z" fill="#81818B"/>
<path d="M126.724 28.2449C125.216 28.2449 123.878 27.9388 122.711 27.3273C121.545 26.7155 120.63 25.8554 119.966 24.7467C119.301 23.6385 118.97 22.3577 118.97 20.905C118.97 19.4333 119.292 18.124 119.935 16.9772C120.599 15.8304 121.504 14.9416 122.652 14.3108C123.818 13.661 125.186 13.3361 126.755 13.3361C128.223 13.3361 129.521 13.6419 130.648 14.2535C131.774 14.8651 132.65 15.7061 133.273 16.7765C133.916 17.8277 134.239 19.0032 134.239 20.303C134.239 20.5132 134.228 20.733 134.208 20.9624C134.208 21.1918 134.198 21.4307 134.178 21.6792H122.802C122.882 22.7877 123.285 23.6575 124.009 24.2884C124.753 24.9188 125.649 25.2343 126.695 25.2343C127.479 25.2343 128.133 25.0719 128.656 24.7467C129.199 24.403 129.601 23.9632 129.863 23.4279H133.786C133.504 24.3264 133.031 25.1485 132.368 25.8939C131.723 26.6199 130.919 27.1933 129.953 27.614C129.008 28.0343 127.932 28.2449 126.724 28.2449ZM126.755 16.3178C125.81 16.3178 124.975 16.5758 124.25 17.0919C123.526 17.5888 123.064 18.3534 122.862 19.3855H130.315C130.255 18.4489 129.893 17.7035 129.229 17.1492C128.565 16.5949 127.741 16.3178 126.755 16.3178Z" fill="#81818B"/>
</svg>
